<?xml version="1.0" encoding="iso-8859-1"?>
<!-- Generator: Adobe Illustrator 19.0.0, SVG Export Plug-In . SVG Version: 6.00 Build 0)  -->
<svg version="1.1" id="Capa_1" xmlns="http://www.w3.org/2000/svg" xmlns:xlink="http://www.w3.org/1999/xlink" x="0px" y="0px"
	 viewBox="0 0 512 512" style="enable-background:new 0 0 512 512;" xml:space="preserve">
<rect x="10" y="10" style="fill:#FABA4B;" width="492" height="110"/>
<path style="fill:#EE4554;" d="M10,120v382h492V120H10z"/>
<g>
	<rect x="50" y="160" style="fill:#63C3E6;" width="100" height="80"/>
	<rect x="361" y="160" style="fill:#63C3E6;" width="100" height="80"/>
	<rect x="206" y="160" style="fill:#63C3E6;" width="100" height="80"/>
</g>
<g>
	<rect x="50" y="240" style="fill:#FABA4B;" width="100" height="40"/>
	<rect x="361" y="240" style="fill:#FABA4B;" width="100" height="40"/>
	<rect x="206" y="240" style="fill:#FABA4B;" width="100" height="40"/>
</g>
<path style="fill:#81B3E6;" d="M139,320c-85,0-89,43.141-89,79.089V502h180V399.089C230,363.141,224,320,139,320z"/>
<rect x="90" y="422" style="fill:#EE4554;" width="100" height="40"/>
<polygon style="fill:#63C3E6;" points="105.643,382 90,422 190,422 174.357,382 "/>
<rect x="281" y="422" style="fill:#81B3E6;" width="180" height="80"/>
<rect x="321" y="422" style="fill:#EE4554;" width="100" height="40"/>
<path style="fill:#E6E6E6;" d="M281,399.089c0-35.948,4-79.089,89-79.089s91,43.141,91,79.089V422H281V399.089z"/>
<path d="M502,0H10C4.477,0,0,4.477,0,10v492c0,5.523,4.477,10,10,10h492c5.522,0,10-4.477,10-10V10C512,4.477,507.522,0,502,0z
	 M20,20h472v90H20V20z M167.53,392l7.821,20h-70.703l7.821-20H167.53z M180,432v20h-80v-20H180z M165.714,472v20h-51.429v-20
	H165.714z M185.714,492v-20H190c5.523,0,10-4.477,10-10c0,0-0.011-40.19-0.013-40.265c-0.03-1.145-0.255-2.308-0.674-3.377
	l-15.643-40c-1.5-3.834-5.196-6.358-9.313-6.358H150v-6c0-5.523-4.477-10-10-10s-10,4.477-10,10v6h-24.357
	c-4.117,0-7.813,2.523-9.313,6.358c0,0-15.642,39.997-15.643,40c-0.42,1.074-0.644,2.225-0.674,3.377C80.011,421.81,80,462,80,462
	c0,5.523,4.477,10,10,10h4.286v20H60v-92.911C60,368.308,60,330,139,330c34.412,0,57.81,7.496,69.542,22.28
	C218.612,364.97,220,382.277,220,399.089V492H185.714z M291,432h20v30c0,5.523,4.478,10,10,10h4.286v20H291V432z M451,412H291
	v-12.911c0-30.781,0-69.089,79-69.089c34.412,0,57.81,7.496,69.542,22.28C449.612,364.97,451,382.277,451,399.089V412z M396.715,472
	v20h-51.429v-20H396.715z M411,452h-80v-20h80V452z M416.715,492v-20H421c5.522,0,10-4.477,10-10v-30h20v60H416.715z M492,492h-21
	v-92.911c0-19.454-1.876-41.706-15.792-59.241C439.27,319.763,411.397,310,370,310c-41.384,0-68.97,9.816-84.333,30.009
	C272.134,357.796,271,379.832,271,399.089V492h-31v-34v-58.911c0-19.454-1.876-41.706-15.792-59.241
	C208.27,319.763,180.397,310,139,310c-41.384,0-68.969,9.816-84.333,30.009C41.133,357.796,40,379.832,40,399.089V492H20V130h472
	V492z"/>
<path d="M76.482,42.007H54.274c-1.881,0-4.352,0.821-4.352,3.072c0,0,0,40.32,0,40.638c0,2.376,3.148,3.074,4.992,3.074
	c1.879,0,4.992-0.669,4.992-3.072V69.207c0,0,9.592,0,9.664,0c1.937,0,3.008-2.046,3.008-3.776c0-1.805-0.938-3.904-3.008-3.904
	h-9.664V50.711c0,0,16.443,0,16.575,0c2.223,0,3.009-2.616,3.009-4.416C79.49,44.541,78.702,42.007,76.482,42.007z"/>
<path d="M96.177,42.805c-1.071-0.586-2.499-0.798-3.503-0.798c-1.857,0-4.992,0.629-4.992,3.008c0,0,0,40.402,0,40.703
	c0,2.434,3.089,3.073,4.993,3.073c1.891,0,4.992-0.644,4.992-3.072c0,0,0-40.354,0-40.702
	C97.666,43.984,97.036,43.274,96.177,42.805z"/>
<path d="M133.697,68.695c5.162-2.005,7.744-6.336,7.744-12.992c0-9.13-5.248-13.696-15.744-13.696h-13.248
	c-1.679,0-3.071,1.306-3.071,3.008c0,0,0,40.504,0,40.704c0,2.434,3.097,3.072,4.992,3.072c1.779,0,4.991-0.677,4.991-3.072V70.295
	h4.225c0,0,8.709,16.911,8.767,17.023c1.486,2.885,5.463,1.84,7.457,0.193c1.175-0.97,2.82-3.091,1.696-4.672L133.697,68.695z
	 M129.784,61.041c-0.992,0.988-2.388,1.574-4.087,1.574h-6.336V50.711c0,0,6.32,0,6.336,0c3.675,0,5.761,2.308,5.761,5.951
	C131.458,58.435,130.857,59.973,129.784,61.041z"/>
<path d="M178.689,50.711c2.199-0.001,3.008-2.628,3.008-4.416c0-1.853-0.792-4.288-3.008-4.288c0,0-22.744,0-22.784,0
	c-1.775,0-4.352,0.842-4.352,3.072v40.64c0,2.258,2.482,3.071,4.352,3.071c0,0,22.623,0,22.783,0c2.164,0,3.009-2.495,3.009-4.288
	c0-1.728-0.792-4.416-3.008-4.416h-17.152v-10.88c0,0,9.601,0,9.602,0c2.029-0.001,3.006-1.988,3.007-3.775
	c0-1.705-0.955-3.905-3.008-3.905h-9.601V50.711C161.537,50.711,178.544,50.711,178.689,50.711z"/>
<path d="M232.385,64.183c-1.494-1.088-3.126-2.09-4.896-3.008c-1.771-0.917-3.403-1.664-4.896-2.24
	c-1.494-0.576-2.742-1.269-3.744-2.08c-1.003-0.81-1.504-1.706-1.504-2.688c0-1.066,0.532-1.973,1.6-2.72
	c1.066-0.746,2.666-1.12,4.8-1.12c2.005,0,3.84,0.406,5.504,1.216c1.664,0.811,2.752,1.216,3.265,1.216
	c1.236,0,2.208-0.607,2.912-1.821s1.056-2.384,1.056-3.512c0-1.186-0.48-2.197-1.44-3.033c-0.96-0.835-2.197-1.439-3.712-1.813
	s-2.88-0.627-4.096-0.759c-1.216-0.132-2.379-0.198-3.488-0.198c-4.522,0-8.384,1.12-11.584,3.36s-4.8,5.621-4.8,10.144
	c0,2.774,0.693,5.163,2.08,7.168c1.386,2.006,3.082,3.552,5.088,4.64c2.005,1.088,4,2.07,5.984,2.944
	c1.983,0.875,3.669,1.846,5.056,2.912c1.386,1.067,2.08,2.304,2.08,3.712s-0.619,2.464-1.856,3.168s-2.688,1.056-4.352,1.056
	c-1.323,0-2.582-0.258-3.776-0.776c-1.194-0.517-2.123-1.09-2.783-1.72c-0.662-0.629-1.388-1.202-2.177-1.72
	c-0.79-0.517-1.504-0.776-2.144-0.776c-1.152,0-2.166,0.598-3.04,1.792c-0.875,1.195-1.313,2.39-1.313,3.584
	c0,2.134,1.536,4.054,4.608,5.76c3.072,1.707,6.677,2.56,10.816,2.56c4.777,0,8.64-1.225,11.584-3.676
	c2.943-2.451,4.416-5.876,4.416-10.276c0-2.517-0.502-4.757-1.504-6.72C235.125,66.797,233.877,65.271,232.385,64.183z"/>
<path d="M275.071,42.007h-27.647c-0.982,0-1.729,0.425-2.24,1.275c-0.512,0.85-0.768,1.855-0.768,3.015c0,1.244,0.266,2.29,0.8,3.14
	c0.533,0.85,1.269,1.274,2.208,1.274h8.832v34.987c0,0.988,0.489,1.751,1.472,2.288c0.981,0.537,2.154,0.805,3.521,0.805
	c1.364,0,2.537-0.268,3.52-0.805c0.981-0.537,1.472-1.3,1.472-2.288V50.711h8.832c0.938,0,1.674-0.424,2.208-1.274
	c0.533-0.85,0.8-1.896,0.8-3.14c0-1.16-0.256-2.165-0.768-3.015C276.8,42.432,276.053,42.007,275.071,42.007z"/>
<path d="M304.704,44.951c-0.342-1.066-1.12-1.888-2.336-2.464s-2.614-0.864-4.192-0.864c-1.579,0-2.976,0.288-4.191,0.864
	c-1.216,0.576-1.995,1.398-2.336,2.464l-11.904,39.04c-0.086,0.342-0.128,0.576-0.128,0.704c0,1.11,0.693,2.07,2.08,2.88
	c1.386,0.811,2.826,1.216,4.319,1.216c1.835,0,2.923-0.618,3.265-1.856l2.176-8h13.504l2.176,8c0.342,1.238,1.43,1.856,3.265,1.856
	c1.493,0,2.933-0.405,4.319-1.216c1.387-0.81,2.08-1.77,2.08-2.88c0-0.128-0.043-0.362-0.128-0.704L304.704,44.951z M293.504,71.255
	l4.672-17.152l4.672,17.152H293.504z"/>
<path d="M348.992,42.007h-27.648c-0.981,0-1.728,0.425-2.24,1.275c-0.512,0.85-0.768,1.855-0.768,3.015c0,1.244,0.266,2.29,0.8,3.14
	c0.533,0.85,1.27,1.274,2.208,1.274h8.832v34.987c0,0.988,0.49,1.751,1.473,2.288c0.98,0.537,2.153,0.805,3.52,0.805
	c1.365,0,2.538-0.268,3.52-0.805c0.981-0.537,1.473-1.3,1.473-2.288V50.711h8.832c0.938,0,1.674-0.424,2.208-1.274
	c0.533-0.85,0.8-1.896,0.8-3.14c0-1.16-0.256-2.165-0.768-3.015C350.72,42.432,349.973,42.007,348.992,42.007z"/>
<path d="M369.279,42.775c-0.981-0.512-2.154-0.768-3.52-0.768s-2.539,0.256-3.52,0.768c-0.982,0.512-1.473,1.259-1.473,2.24v40.704
	c0,0.982,0.49,1.739,1.473,2.272c0.98,0.534,2.153,0.8,3.52,0.8c1.365,0,2.538-0.266,3.52-0.8c0.981-0.533,1.473-1.29,1.473-2.272
	V45.015C370.752,44.034,370.261,43.287,369.279,42.775z"/>
<path d="M409.087,45.655c-2.858-2.432-6.678-3.648-11.456-3.648c-4.735,0-8.534,1.216-11.392,3.648
	c-2.859,2.432-4.288,6.251-4.288,11.456v16.96c0,5.206,1.429,9.024,4.288,11.456c2.857,2.432,6.656,3.648,11.392,3.648
	c4.778,0,8.598-1.216,11.456-3.648s4.288-6.25,4.288-11.456v-16.96C413.375,51.906,411.945,48.087,409.087,45.655z M403.391,74.071
	c0,4.267-1.92,6.4-5.76,6.4c-3.798,0-5.695-2.133-5.695-6.4v-16.96c0-4.266,1.897-6.4,5.695-6.4c3.84,0,5.76,2.134,5.76,6.4V74.071z
	"/>
<path d="M455.807,42.775c-0.982-0.512-2.155-0.768-3.521-0.768s-2.539,0.256-3.52,0.768c-0.982,0.512-1.473,1.259-1.473,2.24v21.76
	l-10.367-19.776c-1.152-2.218-2.188-3.605-3.104-4.16c-0.918-0.554-2.336-0.832-4.256-0.832c-1.366,0-2.539,0.267-3.52,0.8
	c-0.982,0.534-1.473,1.291-1.473,2.272v40.64c0,0.982,0.49,1.739,1.473,2.272c0.98,0.534,2.153,0.8,3.52,0.8
	c1.365,0,2.538-0.266,3.52-0.8c0.981-0.533,1.473-1.29,1.473-2.272v-21.76l12.16,22.144c0.98,1.792,2.837,2.688,5.567,2.688
	c1.365,0,2.538-0.266,3.521-0.8c0.98-0.533,1.472-1.29,1.472-2.272V45.015C457.278,44.034,456.787,43.287,455.807,42.775z"/>
<path d="M50,290h100c5.523,0,10-4.477,10-10V160c0-5.523-4.477-10-10-10H50c-5.523,0-10,4.477-10,10v120
	C40,285.523,44.477,290,50,290z M140,270H60v-20h80V270z M60,170h80v60H60V170z"/>
<path d="M361,290h100c5.522,0,10-4.477,10-10V160c0-5.523-4.478-10-10-10H361c-5.522,0-10,4.477-10,10v120
	C351,285.523,355.478,290,361,290z M451,270h-80v-20h80V270z M371,170h80v60h-80V170z"/>
<path d="M206,290h100c5.522,0,10-4.477,10-10V160c0-5.523-4.478-10-10-10H206c-5.523,0-10,4.477-10,10v120
	C196,285.523,200.477,290,206,290z M296,270h-80v-20h80V270z M216,170h80v60h-80V170z"/>
<circle cx="256" cy="325" r="10"/>
<g>
</g>
<g>
</g>
<g>
</g>
<g>
</g>
<g>
</g>
<g>
</g>
<g>
</g>
<g>
</g>
<g>
</g>
<g>
</g>
<g>
</g>
<g>
</g>
<g>
</g>
<g>
</g>
<g>
</g>
</svg>
