<?xml version="1.0" encoding="iso-8859-1"?>
<!-- Generator: Adobe Illustrator 19.0.0, SVG Export Plug-In . SVG Version: 6.00 Build 0)  -->
<svg version="1.1" id="Capa_1" xmlns="http://www.w3.org/2000/svg" xmlns:xlink="http://www.w3.org/1999/xlink" x="0px" y="0px"
	 viewBox="0 0 512 512" style="enable-background:new 0 0 512 512;" xml:space="preserve">
<rect x="10" y="10" style="fill:#EE4554;" width="492" height="40"/>
<rect x="10" y="170" style="fill:#81B3E6;" width="492" height="40"/>
<rect x="236" y="210" style="fill:#E6E6E6;" width="40" height="292"/>
<rect x="10" y="462" style="fill:#81B3E6;" width="70" height="40"/>
<rect x="10" y="210" style="fill:#EE4554;" width="70" height="252"/>
<rect x="80" y="210" style="fill:#63C3E6;" width="156" height="292"/>
<rect x="432" y="462" style="fill:#81B3E6;" width="70" height="40"/>
<rect x="432" y="210" style="fill:#EE4554;" width="70" height="252"/>
<rect x="276" y="210" style="fill:#63C3E6;" width="156" height="292"/>
<rect x="10" y="50" style="fill:#E6FFFF;" width="492" height="120"/>
<path d="M502,0H10C4.477,0,0,4.478,0,10v492c0,5.522,4.477,10,10,10h492c5.523,0,10-4.478,10-10V10C512,4.478,507.523,0,502,0z
	 M226,240h-56c-5.51,0-10,4.49-10,10s4.49,10,10,10h56v192H90V220h136V240z M492,160H20V60h472V160z M20,220h50v232H20V220z M20,200
	v-20h472v20H20z M286,260h59c5.51,0,10-4.49,10-10s-4.49-10-10-10h-59v-20h136v232H286V260z M442,220h50v232h-50V220z M20,20h472v20
	H20V20z M20,472h50v20H20V472z M90,472h136v20H90V472z M246,220h20v272h-20V220z M286,472h136v20H286V472z M492,492h-50v-20h50V492z
	"/>
<path d="M38.37,132.961c1.1,0.615,2.572,0.83,3.628,0.83c1.936,0,5.147-0.697,5.147-3.168v-17.027c0,0,9.865,0,9.966,0
	c1.963,0,3.102-2.022,3.102-3.893c0.001-1.71-1.002-4.028-3.102-4.028h-9.967V94.521c0,0,16.943,0,17.094,0
	c2.337,0,3.103-2.663,3.103-4.556c0-1.916-0.807-4.421-3.102-4.421H41.337c-1.926,0-4.488,0.875-4.488,3.168c0,0,0,41.642,0,41.909
	C36.849,131.721,37.49,132.469,38.37,132.961z"/>
<path d="M79.353,130.425c2.947,2.509,6.864,3.763,11.748,3.763c4.928,0,8.866-1.254,11.814-3.763
	c2.947-2.508,4.422-6.445,4.422-11.813v-17.49c0-9.863-6.567-15.576-16.236-15.576c-4.884,0-8.801,1.254-11.748,3.763
	c-2.948,2.508-4.422,6.446-4.422,11.813v17.49C74.931,123.979,76.404,127.917,79.353,130.425z M85.227,101.121
	c0-4.399,1.958-6.6,5.874-6.6c3.96,0,5.94,2.2,5.94,6.6v17.49c0,4.4-1.98,6.6-5.94,6.6c-3.916,0-5.874-2.199-5.874-6.6V101.121z"/>
<path d="M122.45,130.425c2.947,2.509,6.864,3.763,11.748,3.763c4.928,0,8.866-1.254,11.814-3.763
	c2.947-2.508,4.422-6.445,4.422-11.813c0,0,0-17.483,0-17.49c0-9.747-6.516-15.576-16.236-15.576c-4.884,0-8.801,1.254-11.748,3.763
	c-2.948,2.508-4.422,6.446-4.422,11.813v17.49C118.028,123.979,119.502,127.917,122.45,130.425z M128.324,101.121
	c0-4.399,1.958-6.6,5.874-6.6c3.96,0,5.94,2.2,5.94,6.6v17.49c0,4.4-1.98,6.6-5.94,6.6c-3.916,0-5.874-2.199-5.874-6.6V101.121z"/>
<path d="M162.911,132.862c0.942,0.641,2.234,0.929,3.231,0.929c0,0,11.664,0,11.683,0c9.508,0,16.236-5.82,16.236-15.576v-17.094
	c0-9.883-6.548-15.576-16.236-15.576h-11.683c-1.658,0-4.487,0.877-4.487,3.103c0,0,0,41.563,0,42.038
	C161.654,131.646,162.176,132.361,162.911,132.862z M171.95,94.521h5.874c3.96,0,5.939,2.2,5.939,6.6v17.094
	c0,4.4-1.979,6.601-5.939,6.601h-5.874V94.521z"/>
<path d="M224.536,132.994c1.088,0.605,2.552,0.797,3.645,0.797c1.966,0,5.147-0.652,5.147-3.168v-25.41
	c0,0,6.242,11.432,6.27,11.484c1.412,2.586,5.21,2.481,6.666,0l6.336-10.824c0,0,0,24.638,0,24.75c0,2.449,3.246,3.168,5.147,3.168
	c1.944,0,5.148-0.695,5.148-3.168c0,0,0-39.843,0-39.93c0-2.999-2.086-5.149-5.149-5.149c-1.708,0-3.573,0.132-4.984,1.205
	c-1.3,0.988-2.21,2.551-3.001,3.944l-6.798,11.88l-6.798-11.88c-0.832-1.463-1.819-2.953-3.168-3.994
	c-1.338-1.034-3.181-1.154-4.818-1.154c-3.098,0-5.149,2.112-5.149,5.148c0,0,0,39.789,0,39.93
	C223.033,131.756,223.663,132.508,224.536,132.994z"/>
<path d="M273.49,132.537c1.927,1.124,6.948,2.501,7.82-0.66l2.244-8.25h13.926c0,0,2.236,8.219,2.244,8.25
	c0.864,3.176,5.941,1.758,7.821,0.66c1.373-0.802,2.424-2.043,2.013-3.696c0,0-12.324-40.202-12.342-40.26
	c-0.824-2.689-4.296-3.432-6.732-3.432c-2.438,0-5.888,0.795-6.731,3.432c0,0-12.276,40.26-12.277,40.262
	C271.055,130.517,272.116,131.735,273.49,132.537z M290.484,98.02l4.818,17.688h-9.636L290.484,98.02z"/>
<path d="M319.668,132.945c1.102,0.618,2.573,0.846,3.618,0.846c1.938,0,5.147-0.633,5.147-3.168v-15.906h4.356
	c0,0,9.027,17.527,9.042,17.557c1.536,2.982,5.627,1.901,7.688,0.198c1.145-0.946,2.872-3.242,1.749-4.818l-8.052-14.586
	c5.323-2.067,7.986-6.534,7.986-13.398c0-9.415-5.412-14.124-16.236-14.124c0,0-13.605,0-13.662,0c-1.697,0-3.168,1.389-3.168,3.103
	c0,0,0,41.793,0,41.975C318.138,131.703,318.784,132.449,319.668,132.945z M328.434,94.521c0,0,6.53,0,6.534,0
	c3.859,0,5.94,2.313,5.94,6.138c0,3.758-2.096,6.138-5.94,6.138h-6.534V94.521z"/>
<path d="M362.825,132.958c1.099,0.615,2.57,0.833,3.625,0.833c1.947,0,5.147-0.681,5.147-3.168v-11.945l2.772-3.564
	c0,0,11.247,17.101,11.286,17.16c1.803,2.741,5.566,2.113,7.788,0.297c1.578-1.289,2.629-3.332,1.452-5.247l-13.662-20.922
	c0,0,10.807-13.576,10.823-13.596c1.499-1.883,0.211-4.269-1.352-5.577c-1.824-1.526-5.113-2.654-6.765-0.232l-12.343,17.49
	c0,0,0-15.783,0-15.84c0-2.496-3.234-3.103-5.147-3.103c-1.927,0-5.148,0.628-5.148,3.103c0,0,0,41.812,0,41.975
	C361.302,131.717,361.944,132.465,362.825,132.958z"/>
<path d="M404.61,132.946c0.91,0.591,2.131,0.845,3.156,0.845c0,0,23.474,0,23.496,0c2.257,0,3.102-2.5,3.102-4.422
	c0-1.896-0.792-4.554-3.102-4.554h-17.688v-11.22c0,0,9.856,0,9.9,0c2.057,0,3.102-2.071,3.102-3.894
	c0-1.796-1.008-4.026-3.102-4.026h-9.9V94.521c0,0,17.627,0,17.688,0c2.308,0,3.102-2.678,3.102-4.555
	c0-1.843-0.857-4.422-3.102-4.422h-23.496c-1.941,0-4.488,0.853-4.488,3.168c0,0,0,41.782,0,41.91
	C403.277,131.682,403.829,132.439,404.61,132.946z"/>
<path d="M443.537,94.521h9.107c0,0,0,35.996,0,36.08c0,2.49,3.216,3.19,5.148,3.19c1.906,0,5.148-0.707,5.148-3.189v-36.08
	c0,0,9.073,0,9.107,0c2.309,0,3.103-2.673,3.103-4.552c0-1.911-0.818-4.425-3.103-4.425c0,0-28.421,0-28.512,0
	c-2.285,0-3.103,2.53-3.103,4.425C440.435,91.87,441.225,94.521,443.537,94.521z"/>
<path d="M130,260c5.51,0,10-4.49,10-10s-4.49-10-10-10c-5.51,0-10,4.49-10,10S124.49,260,130,260z"/>
<path d="M385,240c-5.51,0-10,4.49-10,10s4.49,10,10,10s10-4.49,10-10S390.51,240,385,240z"/>
<g>
</g>
<g>
</g>
<g>
</g>
<g>
</g>
<g>
</g>
<g>
</g>
<g>
</g>
<g>
</g>
<g>
</g>
<g>
</g>
<g>
</g>
<g>
</g>
<g>
</g>
<g>
</g>
<g>
</g>
</svg>
