<?xml version="1.0" encoding="iso-8859-1"?>
<!-- Generator: Adobe Illustrator 19.0.0, SVG Export Plug-In . SVG Version: 6.00 Build 0)  -->
<svg version="1.1" id="Capa_1" xmlns="http://www.w3.org/2000/svg" xmlns:xlink="http://www.w3.org/1999/xlink" x="0px" y="0px"
	 viewBox="0 0 512 512" style="enable-background:new 0 0 512 512;" xml:space="preserve">
<rect x="346" y="132" style="fill:#E6FFFF;" width="156" height="330"/>
<rect x="10" y="462" style="fill:#81B3E6;" width="492" height="40"/>
<path style="fill:#E6FFFF;" d="M166,10v452h180V10H166z"/>
<polygon style="fill:#EE4554;" points="276,48 236,48 236,73 211,73 211,113 236,113 236,138 276,138 276,113 301,113 301,73 
	276,73 "/>
<rect x="10" y="132" style="fill:#E6FFFF;" width="156" height="330"/>
<rect x="211" y="372" style="fill:#EE4554;" width="90" height="40"/>
<rect x="211" y="412" style="fill:#4696E6;" width="90" height="90"/>
<path d="M502,122H356V10c0-5.523-4.477-10-10-10H166c-5.523,0-10,4.477-10,10v112H10c-5.523,0-10,4.477-10,10v370
	c0,5.523,4.477,10,10,10h492c5.523,0,10-4.477,10-10V132C512,126.477,507.523,122,502,122z M492,142v310H356V142H492z M176,20h160
	v432h-25v-80c0-5.523-4.477-10-10-10h-90c-5.523,0-10,4.477-10,10v80h-25V20z M221,402v-20h70v20H221z M20,142h136v310H20V142z
	 M20,472h181v20H20V472z M221,422h25v70h-25V422z M266,492v-70h25v70H266z M492,492H311v-20h181V492z"/>
<path d="M211,123h15v15c0,5.523,4.477,10,10,10h40c5.523,0,10-4.477,10-10v-15h15c5.523,0,10-4.477,10-10V73c0-5.523-4.477-10-10-10
	h-15V48c0-5.523-4.477-10-10-10h-40c-5.523,0-10,4.477-10,10v15h-15c-5.523,0-10,4.477-10,10v40C201,118.523,205.477,123,211,123z
	 M221,83h15c5.523,0,10-4.477,10-10V58h20v15c0,5.523,4.477,10,10,10h15v20h-15c-5.523,0-10,4.477-10,10v15h-20v-15
	c0-5.523-4.477-10-10-10h-15V83z"/>
<path d="M206,209c5.52,0,10-4.48,10-10s-4.48-10-10-10s-10,4.48-10,10S200.48,209,206,209z"/>
<path d="M206,289c5.52,0,10-4.48,10-10s-4.48-10-10-10s-10,4.48-10,10S200.48,289,206,289z"/>
<path d="M206,249c5.52,0,10-4.48,10-10s-4.48-10-10-10s-10,4.48-10,10S200.48,249,206,249z"/>
<path d="M206,329c5.52,0,10-4.48,10-10s-4.48-10-10-10s-10,4.48-10,10S200.48,329,206,329z"/>
<path d="M256,189c-5.52,0-10,4.48-10,10s4.48,10,10,10c5.52,0,10-4.48,10-10S261.52,189,256,189z"/>
<path d="M256,309c-5.52,0-10,4.48-10,10s4.48,10,10,10c5.52,0,10-4.48,10-10S261.52,309,256,309z"/>
<path d="M256,229c-5.52,0-10,4.48-10,10s4.48,10,10,10c5.52,0,10-4.48,10-10S261.52,229,256,229z"/>
<path d="M256,269c-5.52,0-10,4.48-10,10s4.48,10,10,10c5.52,0,10-4.48,10-10S261.52,269,256,269z"/>
<path d="M306,309c-5.52,0-10,4.48-10,10s4.48,10,10,10s10-4.48,10-10S311.52,309,306,309z"/>
<path d="M296,199c0,5.52,4.48,10,10,10s10-4.48,10-10s-4.48-10-10-10S296,193.48,296,199z"/>
<path d="M306,229c-5.52,0-10,4.48-10,10s4.48,10,10,10s10-4.48,10-10S311.52,229,306,229z"/>
<path d="M306,269c-5.52,0-10,4.48-10,10s4.48,10,10,10s10-4.48,10-10S311.52,269,306,269z"/>
<path d="M398,270c5.52,0,10-4.48,10-10s-4.48-10-10-10s-10,4.48-10,10C388,265.52,392.48,270,398,270z"/>
<path d="M398,190c5.52,0,10-4.48,10-10s-4.48-10-10-10s-10,4.48-10,10S392.48,190,398,190z"/>
<path d="M398,390c5.52,0,10-4.48,10-10s-4.48-10-10-10s-10,4.48-10,10S392.48,390,398,390z"/>
<path d="M398,230c5.52,0,10-4.48,10-10s-4.48-10-10-10s-10,4.48-10,10S392.48,230,398,230z"/>
<path d="M398,430c5.52,0,10-4.48,10-10s-4.48-10-10-10s-10,4.48-10,10S392.48,430,398,430z"/>
<path d="M398,310c5.52,0,10-4.48,10-10s-4.48-10-10-10s-10,4.48-10,10S392.48,310,398,310z"/>
<path d="M398,350c5.52,0,10-4.48,10-10s-4.48-10-10-10s-10,4.48-10,10S392.48,350,398,350z"/>
<path d="M448,230c5.52,0,10-4.48,10-10s-4.48-10-10-10s-10,4.48-10,10S442.48,230,448,230z"/>
<path d="M448,190c5.52,0,10-4.48,10-10s-4.48-10-10-10s-10,4.48-10,10S442.48,190,448,190z"/>
<path d="M448,270c5.52,0,10-4.48,10-10s-4.48-10-10-10s-10,4.48-10,10C438,265.52,442.48,270,448,270z"/>
<path d="M448,390c5.52,0,10-4.48,10-10s-4.48-10-10-10s-10,4.48-10,10S442.48,390,448,390z"/>
<path d="M448,430c5.52,0,10-4.48,10-10s-4.48-10-10-10s-10,4.48-10,10S442.48,430,448,430z"/>
<path d="M448,350c5.52,0,10-4.48,10-10s-4.48-10-10-10s-10,4.48-10,10S442.48,350,448,350z"/>
<path d="M448,310c5.52,0,10-4.48,10-10s-4.48-10-10-10s-10,4.48-10,10S442.48,310,448,310z"/>
<path d="M62,210c-5.52,0-10,4.48-10,10s4.48,10,10,10s10-4.48,10-10S67.52,210,62,210z"/>
<path d="M62,250c-5.52,0-10,4.48-10,10c0,5.52,4.48,10,10,10s10-4.48,10-10S67.52,250,62,250z"/>
<path d="M62,170c-5.52,0-10,4.48-10,10s4.48,10,10,10s10-4.48,10-10S67.52,170,62,170z"/>
<path d="M62,410c-5.52,0-10,4.48-10,10s4.48,10,10,10s10-4.48,10-10S67.52,410,62,410z"/>
<path d="M62,290c-5.52,0-10,4.48-10,10s4.48,10,10,10s10-4.48,10-10S67.52,290,62,290z"/>
<path d="M62,330c-5.52,0-10,4.48-10,10s4.48,10,10,10s10-4.48,10-10S67.52,330,62,330z"/>
<path d="M62,370c-5.52,0-10,4.48-10,10s4.48,10,10,10s10-4.48,10-10S67.52,370,62,370z"/>
<path d="M112,170c-5.52,0-10,4.48-10,10s4.48,10,10,10s10-4.48,10-10S117.52,170,112,170z"/>
<path d="M112,290c-5.52,0-10,4.48-10,10s4.48,10,10,10s10-4.48,10-10S117.52,290,112,290z"/>
<path d="M112,210c-5.52,0-10,4.48-10,10s4.48,10,10,10s10-4.48,10-10S117.52,210,112,210z"/>
<path d="M112,250c-5.52,0-10,4.48-10,10c0,5.52,4.48,10,10,10s10-4.48,10-10S117.52,250,112,250z"/>
<path d="M112,410c-5.52,0-10,4.48-10,10s4.48,10,10,10s10-4.48,10-10S117.52,410,112,410z"/>
<path d="M112,370c-5.52,0-10,4.48-10,10s4.48,10,10,10s10-4.48,10-10S117.52,370,112,370z"/>
<path d="M112,330c-5.52,0-10,4.48-10,10s4.48,10,10,10s10-4.48,10-10S117.52,330,112,330z"/>
<g>
</g>
<g>
</g>
<g>
</g>
<g>
</g>
<g>
</g>
<g>
</g>
<g>
</g>
<g>
</g>
<g>
</g>
<g>
</g>
<g>
</g>
<g>
</g>
<g>
</g>
<g>
</g>
<g>
</g>
</svg>
