<?xml version="1.0" encoding="iso-8859-1"?>
<!-- Generator: Adobe Illustrator 19.0.0, SVG Export Plug-In . SVG Version: 6.00 Build 0)  -->
<svg version="1.1" id="Capa_1" xmlns="http://www.w3.org/2000/svg" xmlns:xlink="http://www.w3.org/1999/xlink" x="0px" y="0px"
	 viewBox="0 0 512 512" style="enable-background:new 0 0 512 512;" xml:space="preserve">
<path style="fill:#455A64;" d="M480,112H361.888l-27.584-55.168C331.591,51.419,326.055,48,320,48H192
	c-6.055,0-11.591,3.419-14.304,8.832L150.112,112H32c-17.673,0-32,14.327-32,32v288c0,17.673,14.327,32,32,32h448
	c17.673,0,32-14.327,32-32V144C512,126.327,497.673,112,480,112z"/>
<circle style="fill:#2196F3;" cx="256" cy="288" r="112"/>
<path d="M480,464H32c-17.673,0-32-14.327-32-32V144c0-17.673,14.327-32,32-32h118.112l27.584-55.168
	C180.409,51.419,185.945,48,192,48h128c6.055,0,11.591,3.419,14.304,8.832L361.888,112H480c17.673,0,32,14.327,32,32v288
	C512,449.673,497.673,464,480,464z M32,144v288h448V144H352c-6.055,0-11.591-3.419-14.304-8.832L310.112,80H201.92l-27.616,55.168
	C171.591,140.581,166.055,144,160,144H32z"/>
<path d="M256,400c-61.856,0-112-50.144-112-112s50.144-112,112-112s112,50.144,112,112S317.856,400,256,400z M256,208
	c-44.183,0-80,35.817-80,80s35.817,80,80,80s80-35.817,80-80S300.183,208,256,208z"/>
<g>
</g>
<g>
</g>
<g>
</g>
<g>
</g>
<g>
</g>
<g>
</g>
<g>
</g>
<g>
</g>
<g>
</g>
<g>
</g>
<g>
</g>
<g>
</g>
<g>
</g>
<g>
</g>
<g>
</g>
</svg>
