<svg height="512pt" viewBox="0 0 512 512" width="512pt" xmlns="http://www.w3.org/2000/svg"><path d="m469.332031 0h-426.664062c-23.554688.0273438-42.6406252 19.113281-42.667969 42.667969v426.664062c.0273438 23.554688 19.113281 42.640625 42.667969 42.667969h426.664062c23.554688-.027344 42.640625-19.113281 42.667969-42.667969v-426.664062c-.027344-23.554688-19.113281-42.6406252-42.667969-42.667969zm25.601563 469.332031c-.015625 14.132813-11.46875 25.585938-25.601563 25.601563h-426.664062c-14.132813-.015625-25.585938-11.46875-25.601563-25.601563v-426.664062c.015625-14.132813 11.46875-25.585938 25.601563-25.601563h426.664062c14.132813.015625 25.585938 11.46875 25.601563 25.601563zm0 0"/><path d="m460.800781 34.132812h-409.601562c-9.417969.011719-17.054688 7.648438-17.066407 17.066407v409.601562c.011719 9.417969 7.648438 17.054688 17.066407 17.066407h409.601562c9.417969-.011719 17.054688-7.648438 17.066407-17.066407v-409.601562c-.011719-9.417969-7.648438-17.054688-17.066407-17.066407zm0 426.667969-409.601562.015625v-409.617187h409.601562zm0 0"/><path d="m110.933594 409.601562h170.667968c20.261719-.027343 37.722657-14.285156 41.800782-34.136718h60.597656c14.132812-.015625 25.585938-11.464844 25.601562-25.597656v-34.132813h25.597657c4.714843 0 8.535156-3.820313 8.535156-8.535156v-102.398438c0-4.714843-3.820313-8.535156-8.535156-8.535156h-25.597657v-29.867187c.015626-12.144532-7.332031-23.085938-18.582031-27.664063s-24.152343-1.878906-32.621093 6.828125c-9.003907-9.386719-23.113282-11.726562-34.664063-5.746094-2.601563-21.308594-20.664063-37.351562-42.132813-37.417968h-170.667968c-23.554688.03125-42.640625 19.117187-42.667969 42.667968v221.867188c.027344 23.550781 19.113281 42.636718 42.667969 42.667968zm315.734375-196.269531v85.335938h-17.066407v-85.335938zm-46.933594-59.730469c7.066406.007813 12.789063 5.734376 12.800781 12.796876v183.46875c-.003906 4.710937-3.824218 8.53125-8.535156 8.53125h-17.066406v-192c.007812-7.0625 5.734375-12.789063 12.800781-12.796876zm-42.667969 0c7.066406.007813 12.792969 5.734376 12.800782 12.796876v192h-25.601563v-192c.007813-7.0625 5.734375-12.789063 12.800781-12.796876zm-251.734375-8.535156c.015625-14.132812 11.46875-25.585937 25.601563-25.601562h170.667968c14.128907.015625 25.582032 11.46875 25.597657 25.601562v221.867188c-.015625 14.132812-11.46875 25.585937-25.597657 25.601562h-170.667968c-14.132813-.015625-25.585938-11.46875-25.601563-25.601562zm0 0"/><path d="m170.667969 358.398438c28.277343 0 51.199219-22.921876 51.199219-51.199219 0-28.277344-22.921876-51.199219-51.199219-51.199219-28.277344 0-51.203125 22.921875-51.203125 51.199219.03125 28.265625 22.9375 51.167969 51.203125 51.199219zm0-85.332032c18.851562 0 34.132812 15.28125 34.132812 34.132813 0 18.851562-15.28125 34.132812-34.132812 34.132812-18.851563 0-34.132813-15.28125-34.132813-34.132812.015625-18.84375 15.289063-34.113281 34.132813-34.132813zm0 0"/><path d="m247.464844 213.332031c18.851562 0 34.136718-15.28125 34.136718-34.132812 0-18.851563-15.285156-34.132813-34.136718-34.132813-18.847656 0-34.132813 15.28125-34.132813 34.132813.019531 18.84375 15.289063 34.117187 34.132813 34.132812zm0-51.199219c9.425781 0 17.070312 7.640626 17.070312 17.066407s-7.644531 17.066406-17.070312 17.066406c-9.425782 0-17.066406-7.640625-17.066406-17.066406.015624-9.417969 7.648437-17.054688 17.066406-17.066407zm0 0"/></svg>