<svg height="384pt" viewBox="0 -8 384 384" width="384pt" xmlns="http://www.w3.org/2000/svg"><path d="m368 128v192c0 17.679688-14.320312 32-32 32h-288c-17.679688 0-32-14.320312-32-32v-192c0-17.679688 14.320312-32 32-32h288c17.679688 0 32 14.320312 32 32zm-112 96c0-35.359375-28.640625-64-64-64s-64 28.640625-64 64 28.640625 64 64 64 64-28.640625 64-64zm0 0" fill="#ff7043"/><path d="m244.398438 24.878906 35.601562 71.121094h-176l35.601562-71.121094c2.71875-5.4375 8.238282-8.878906 14.320313-8.878906h76.15625c6.082031 0 11.601563 3.441406 14.320313 8.878906zm0 0" fill="#e0f7fa"/><path d="m256 224c0 35.347656-28.652344 64-64 64s-64-28.652344-64-64 28.652344-64 64-64 64 28.652344 64 64zm0 0" fill="#4dd0e1"/><g fill="#012e52"><path d="m48 368h288c26.472656 0 48-21.527344 48-48v-192c0-26.472656-21.527344-48-48-48h-46.121094l-31.175781-62.28125c-5.464844-10.925781-16.429687-17.71875-28.625-17.71875h-76.15625c-12.195313 0-23.167969 6.792969-28.632813 17.71875l-31.167968 62.28125h-46.121094c-26.472656 0-48 21.527344-48 48v192c0 26.472656 21.527344 48 48 48zm105.921875-336 76.167969.039062 24.007812 47.960938h-124.203125zm-121.921875 96c0-8.824219 7.175781-16 16-16h288c8.824219 0 16 7.175781 16 16v192c0 8.824219-7.175781 16-16 16h-288c-8.824219 0-16-7.175781-16-16zm0 0"/><path d="m192 304c44.113281 0 80-35.886719 80-80s-35.886719-80-80-80-80 35.886719-80 80 35.886719 80 80 80zm0-128c26.472656 0 48 21.527344 48 48s-21.527344 48-48 48-48-21.527344-48-48 21.527344-48 48-48zm0 0"/><path d="m184 240h16c8.832031 0 16-7.167969 16-16s-7.167969-16-16-16h-16c-8.832031 0-16 7.167969-16 16s7.167969 16 16 16zm0 0"/><path d="m296 176h16c8.832031 0 16-7.167969 16-16s-7.167969-16-16-16h-16c-8.832031 0-16 7.167969-16 16s7.167969 16 16 16zm0 0"/></g></svg>